{"title":"Kid.Cannabis.2014.BRRip.480p.x264.AAC-VYTO [P2PDL]","uid":10383945,"size":400249378,"categoryP":"video","categoryS":"movies","magnet":"?xt=urn:btih:89236e7fd663db78f3866171c449113f9ad78f25&amp;dn=Kid.Cannabis.2014.BRRip.480p.x264.AAC-VYTO+%5BP2PDL%5D&amp;tr=udp%3A%2F%2Ftracker.openbittorrent.com%3A80&amp;tr=udp%3A%2F%2Fopen.demonii.com%3A1337&amp;tr=udp%3A%2F%2Ftracker.coppersurfer.tk%3A6969&amp;tr=udp%3A%2F%2Fexodus.desync.com%3A6969","seeders":2,"leechers":1,"uploader":"ValidusVyto","files":-1,"time":1403113868,"description":"____    ____ ____    ____ .___________.  ______   \n     /   /      /   / |           | /  __    \n    /   /      /   /  `---|  |----`|  |  |  | \n        /     _    _/       |  |     |  |  |  | \n       /        |  |         |  |     |  `--'  | \n    __/         |__|         |__|      ______/  \n                                                  \nPresenting Small Encodes with quality for years!\n                                                                                                   \n                                                                                                   \n\nKid.Cannabis.2014.BRRip.480p.x264.AAC-VYTO\n\n\nGenre: Crime | Drama &lt;a href=&quot;\nhttp://www.imdb.com/title/tt0780548/&quot; rel=&quot;nofollow&quot; target=&quot;_NEW&quot;&gt;\nhttp://www.imdb.com/title/tt0780548/&lt;/a&gt;\n\n\nFormat                         : MPEG-4\nFile size                      : 376 MiB\nDuration                       : 1h 49mn\nOverall bit rate               : 479 Kbps\n\nVideo\nFormat                         : AVC\nBit rate                       : 436 Kbps\nWidth                          : 720 pixels\nHeight                         : 384 pixels\nDisplay aspect ratio           : 1.85:1\nFrame rate mode                : Constant\nFrame rate                     : 23.976 fps\nBit depth                      : 8 bits\nStream size                    : 342 MiB (91%)\n\nAudio\nFormat                         : AAC\nBit rate                       : 40.0 Kbps\nChannel(s)                     : 2 channels\nChannel positions              : Front: L R\nSampling rate                  : 48.0 KHz\nStream size                    : 31.4 MiB (8%)\nLanguage                       : English\n\nSubtitle                       : Yes (English)\n &lt;a href=&quot;\nhttp://ultraimg.com/images/7U5dl.png&quot; rel=&quot;nofollow&quot; target=&quot;_NEW&quot;&gt;\nhttp://ultraimg.com/images/7U5dl.png&lt;/a&gt; &lt;a href=&quot;\nhttp://ultraimg.com/images/MuZCX.png&quot; rel=&quot;nofollow&quot; target=&quot;_NEW&quot;&gt;\nhttp://ultraimg.com/images/MuZCX.png&lt;/a&gt; &lt;a href=&quot;\nhttp://ultraimg.com/images/SUoYc.png&quot; rel=&quot;nofollow&quot; target=&quot;_NEW&quot;&gt;\nhttp://ultraimg.com/images/SUoYc.png&lt;/a&gt; &lt;a href=&quot;\nhttp://ultraimg.com/images/eYoI.png&quot; rel=&quot;nofollow&quot; target=&quot;_NEW&quot;&gt;\nhttp://ultraimg.com/images/eYoI.png&lt;/a&gt; &lt;a href=&quot;\nhttp://ultraimg.com/images/jdH5x.png&quot; rel=&quot;nofollow&quot; target=&quot;_NEW&quot;&gt;\nhttp://ultraimg.com/images/jdH5x.png&lt;/a&gt; &lt;a href=&quot;\nhttp://ultraimg.com/images/k3Jph.png&quot; rel=&quot;nofollow&quot; target=&quot;_NEW&quot;&gt;\nhttp://ultraimg.com/images/k3Jph.png&lt;/a&gt;\n\n----------------------------------------------------------------------------------------------------\n\n\nRecommend to you to use latest version of VLC player. Install K-Lite Codec Pack or shark007 codecs\nin case of any kind of problem in playback (For non-VLC Media Player users). Alternatively, install\nCore AVC codecs, the fastest decoder that there is coupled with Community Center Codec Pack and play\non Windows Media Player Classic. Check sample to be sure.\n\nEncoder Notes:Looking For Early Access To Anything You Can Provide DVDScr, R5, DVDR, BluRay, Direct\nAudio, Music Releases and Seedboxes. We require dedicated servers, so as to do more \nand fast releases of movies.\n\nEncode by VYTO @ P2PDL Torrent Sharing Community! Find us :)","torrent":{"xt":"urn:btih:89236e7fd663db78f3866171c449113f9ad78f25","amp;dn":"Kid.Cannabis.2014.BRRip.480p.x264.AAC-VYTO+%5BP2PDL%5D","amp;tr":["udp%3A%2F%2Ftracker.openbittorrent.com%3A80","udp%3A%2F%2Fopen.demonii.com%3A1337","udp%3A%2F%2Ftracker.coppersurfer.tk%3A6969","udp%3A%2F%2Fexodus.desync.com%3A6969"],"infoHash":"89236e7fd663db78f3866171c449113f9ad78f25","infoHashBuffer":{"type":"Buffer","data":[137,35,110,127,214,99,219,120,243,134,97,113,196,73,17,63,154,215,143,37]},"announce":[],"urlList":[]}}